<?xml version="1.0" encoding="UTF-8"?>
<!DOCTYPE svg PUBLIC "-//W3C//DTD SVG 1.1//EN" "http://www.w3.org/Graphics/SVG/1.1/DTD/svg11.dtd">
<svg version="1.1" xmlns="http://www.w3.org/2000/svg" xmlns:xlink="http://www.w3.org/1999/xlink" x="0px" y="0px" width="1200" height="700" viewBox="0, 0, 1200, 700">
  <g id="Background">
    <rect x="0" y="0" width="1200" height="700" fill="#000000" fill-opacity="0"/>
  </g>
  <g id="Layer 1">
    <text transform="matrix(1, 0, 0, 1, 354.842, 54.5)">
      <tspan x="-65.487" y="-8.5" font-family="Verdana-Bold" font-size="36" fill="#294270">Cipher</tspan>
      <tspan x="-51.943" y="35.5" font-family="Verdana-Bold" font-size="36" fill="#294270">grille</tspan>
    </text>
    <text transform="matrix(1, 0, 0, 1, 858.663, 54.5)">
      <tspan x="-90.026" y="-8.5" font-family="Verdana-Bold" font-size="36" fill="#294270">Ciphered</tspan>
      <tspan x="-97.488" y="35.5" font-family="Verdana-Bold" font-size="36" fill="#294270">password</tspan>
    </text>
    <path d="M239.326,109.5 L289.326,109.5 L289.326,159.5 L239.326,159.5 z" fill-opacity="0" stroke="#65A1CF" stroke-width="2"/>
    <g>
      <path d="M289.326,109.5 L339.326,109.5 L339.326,159.5 L289.326,159.5 z" fill="#65A1CF"/>
      <path d="M289.326,109.5 L339.326,109.5 L339.326,159.5 L289.326,159.5 z" fill-opacity="0" stroke="#65A1CF" stroke-width="2"/>
    </g>
    <g>
      <path d="M339.326,109.5 L389.326,109.5 L389.326,159.5 L339.326,159.5 z" fill="#65A1CF"/>
      <path d="M339.326,109.5 L389.326,109.5 L389.326,159.5 L339.326,159.5 z" fill-opacity="0" stroke="#65A1CF" stroke-width="2"/>
    </g>
    <g>
      <path d="M389.326,109.5 L439.326,109.5 L439.326,159.5 L389.326,159.5 z" fill="#65A1CF"/>
      <path d="M389.326,109.5 L439.326,109.5 L439.326,159.5 L389.326,159.5 z" fill-opacity="0" stroke="#65A1CF" stroke-width="2"/>
    </g>
    <g>
      <path d="M239.326,159.5 L289.326,159.5 L289.326,209.5 L239.326,209.5 z" fill="#65A1CF"/>
      <path d="M239.326,159.5 L289.326,159.5 L289.326,209.5 L239.326,209.5 z" fill-opacity="0" stroke="#65A1CF" stroke-width="2"/>
    </g>
    <g>
      <path d="M289.326,159.5 L339.326,159.5 L339.326,209.5 L289.326,209.5 z" fill="#65A1CF"/>
      <path d="M289.326,159.5 L339.326,159.5 L339.326,209.5 L289.326,209.5 z" fill-opacity="0" stroke="#65A1CF" stroke-width="2"/>
    </g>
    <path d="M339.326,159.5 L389.326,159.5 L389.326,209.5 L339.326,209.5 z" fill-opacity="0" stroke="#65A1CF" stroke-width="2"/>
    <g>
      <path d="M389.326,159.5 L439.326,159.5 L439.326,209.5 L389.326,209.5 z" fill="#65A1CF"/>
      <path d="M389.326,159.5 L439.326,159.5 L439.326,209.5 L389.326,209.5 z" fill-opacity="0" stroke="#65A1CF" stroke-width="2"/>
    </g>
    <path d="M239.326,209.5 L289.326,209.5 L289.326,259.5 L239.326,259.5 z" fill-opacity="0" stroke="#65A1CF" stroke-width="2"/>
    <g>
      <path d="M289.326,209.5 L339.326,209.5 L339.326,259.5 L289.326,259.5 z" fill="#65A1CF"/>
      <path d="M289.326,209.5 L339.326,209.5 L339.326,259.5 L289.326,259.5 z" fill-opacity="0" stroke="#65A1CF" stroke-width="2"/>
    </g>
    <g>
      <path d="M339.326,209.5 L389.326,209.5 L389.326,259.5 L339.326,259.5 z" fill="#65A1CF"/>
      <path d="M339.326,209.5 L389.326,209.5 L389.326,259.5 L339.326,259.5 z" fill-opacity="0" stroke="#65A1CF" stroke-width="2"/>
    </g>
    <path d="M389.326,209.5 L439.326,209.5 L439.326,259.5 L389.326,259.5 z" fill-opacity="0" stroke="#65A1CF" stroke-width="2"/>
    <g>
      <path d="M239.326,259.5 L289.326,259.5 L289.326,309.5 L239.326,309.5 z" fill="#65A1CF"/>
      <path d="M239.326,259.5 L289.326,259.5 L289.326,309.5 L239.326,309.5 z" fill-opacity="0" stroke="#65A1CF" stroke-width="2"/>
    </g>
    <g>
      <path d="M289.326,259.5 L339.326,259.5 L339.326,309.5 L289.326,309.5 z" fill="#65A1CF"/>
      <path d="M289.326,259.5 L339.326,259.5 L339.326,309.5 L289.326,309.5 z" fill-opacity="0" stroke="#65A1CF" stroke-width="2"/>
    </g>
    <g>
      <path d="M339.326,259.5 L389.326,259.5 L389.326,309.5 L339.326,309.5 z" fill="#65A1CF"/>
      <path d="M339.326,259.5 L389.326,259.5 L389.326,309.5 L339.326,309.5 z" fill-opacity="0" stroke="#65A1CF" stroke-width="2"/>
    </g>
    <g>
      <path d="M389.326,259.5 L439.326,259.5 L439.326,309.5 L389.326,309.5 z" fill="#65A1CF"/>
      <path d="M389.326,259.5 L439.326,259.5 L439.326,309.5 L389.326,309.5 z" fill-opacity="0" stroke="#65A1CF" stroke-width="2"/>
    </g>
    <path d="M761.674,111.146 L811.674,111.146 L811.674,161.146 L761.674,161.146 z" fill-opacity="0" stroke="#65A1CF" stroke-width="2"/>
    <path d="M811.674,111.146 L861.674,111.146 L861.674,161.146 L811.674,161.146 z" fill-opacity="0" stroke="#65A1CF" stroke-width="2"/>
    <path d="M861.674,111.146 L911.674,111.146 L911.674,161.146 L861.674,161.146 z" fill-opacity="0" stroke="#65A1CF" stroke-width="2"/>
    <path d="M911.674,111.146 L961.674,111.146 L961.674,161.146 L911.674,161.146 z" fill-opacity="0" stroke="#65A1CF" stroke-width="2"/>
    <path d="M761.674,161.146 L811.674,161.146 L811.674,211.146 L761.674,211.146 z" fill-opacity="0" stroke="#65A1CF" stroke-width="2"/>
    <path d="M811.674,161.146 L861.674,161.146 L861.674,211.146 L811.674,211.146 z" fill-opacity="0" stroke="#65A1CF" stroke-width="2"/>
    <path d="M861.674,161.146 L911.674,161.146 L911.674,211.146 L861.674,211.146 z" fill-opacity="0" stroke="#65A1CF" stroke-width="2"/>
    <path d="M911.674,161.146 L961.674,161.146 L961.674,211.146 L911.674,211.146 z" fill-opacity="0" stroke="#65A1CF" stroke-width="2"/>
    <path d="M761.674,211.146 L811.674,211.146 L811.674,261.146 L761.674,261.146 z" fill-opacity="0" stroke="#65A1CF" stroke-width="2"/>
    <path d="M811.674,211.146 L861.674,211.146 L861.674,261.146 L811.674,261.146 z" fill-opacity="0" stroke="#65A1CF" stroke-width="2"/>
    <path d="M861.674,211.146 L911.674,211.146 L911.674,261.146 L861.674,261.146 z" fill-opacity="0" stroke="#65A1CF" stroke-width="2"/>
    <path d="M911.674,211.146 L961.674,211.146 L961.674,261.146 L911.674,261.146 z" fill-opacity="0" stroke="#65A1CF" stroke-width="2"/>
    <path d="M761.674,261.146 L811.674,261.146 L811.674,311.146 L761.674,311.146 z" fill-opacity="0" stroke="#65A1CF" stroke-width="2"/>
    <path d="M811.674,261.146 L861.674,261.146 L861.674,311.146 L811.674,311.146 z" fill-opacity="0" stroke="#65A1CF" stroke-width="2"/>
    <path d="M861.674,261.146 L911.674,261.146 L911.674,311.146 L861.674,311.146 z" fill-opacity="0" stroke="#65A1CF" stroke-width="2"/>
    <path d="M911.674,261.146 L961.674,261.146 L961.674,311.146 L911.674,311.146 z" fill-opacity="0" stroke="#65A1CF" stroke-width="2"/>
    <text transform="matrix(1, 0, 0, 1, 263.826, 134)">
      <tspan x="-13.746" y="13.5" font-family="Verdana-Bold" font-size="36" fill="#294270">X</tspan>
    </text>
    <text transform="matrix(1, 0, 0, 1, 363.826, 186.5)">
      <tspan x="-13.746" y="13.5" font-family="Verdana-Bold" font-size="36" fill="#294270">X</tspan>
    </text>
    <text transform="matrix(1, 0, 0, 1, 413.826, 236.5)">
      <tspan x="-13.746" y="13.5" font-family="Verdana-Bold" font-size="36" fill="#294270">X</tspan>
    </text>
    <text transform="matrix(1, 0, 0, 1, 313.826, 134)">
      <tspan x="-6.504" y="13.5" font-family="Verdana-Bold" font-size="36" fill="#294270">.</tspan>
    </text>
    <text transform="matrix(1, 0, 0, 1, 363.826, 134)">
      <tspan x="-6.504" y="13.5" font-family="Verdana-Bold" font-size="36" fill="#294270">.</tspan>
    </text>
    <text transform="matrix(1, 0, 0, 1, 413.826, 134)">
      <tspan x="-6.504" y="13.5" font-family="Verdana-Bold" font-size="36" fill="#294270">.</tspan>
    </text>
    <text transform="matrix(1, 0, 0, 1, 413.826, 181.5)">
      <tspan x="-6.504" y="13.5" font-family="Verdana-Bold" font-size="36" fill="#294270">.</tspan>
    </text>
    <text transform="matrix(1, 0, 0, 1, 313.826, 181.5)">
      <tspan x="-6.504" y="13.5" font-family="Verdana-Bold" font-size="36" fill="#294270">.</tspan>
    </text>
    <text transform="matrix(1, 0, 0, 1, 263.826, 181.5)">
      <tspan x="-6.504" y="13.5" font-family="Verdana-Bold" font-size="36" fill="#294270">.</tspan>
    </text>
    <text transform="matrix(1, 0, 0, 1, 263.826, 231.5)">
      <tspan x="-13.746" y="13.5" font-family="Verdana-Bold" font-size="36" fill="#294270">X</tspan>
    </text>
    <text transform="matrix(1, 0, 0, 1, 263.826, 276.5)">
      <tspan x="-6.504" y="13.5" font-family="Verdana-Bold" font-size="36" fill="#294270">.</tspan>
    </text>
    <text transform="matrix(1, 0, 0, 1, 363.826, 231.5)">
      <tspan x="-6.504" y="13.5" font-family="Verdana-Bold" font-size="36" fill="#294270">.</tspan>
    </text>
    <text transform="matrix(1, 0, 0, 1, 313.826, 231.5)">
      <tspan x="-6.504" y="13.5" font-family="Verdana-Bold" font-size="36" fill="#294270">.</tspan>
    </text>
    <text transform="matrix(1, 0, 0, 1, 363.826, 281.5)">
      <tspan x="-6.504" y="13.5" font-family="Verdana-Bold" font-size="36" fill="#294270">.</tspan>
    </text>
    <text transform="matrix(1, 0, 0, 1, 413.826, 286.5)">
      <tspan x="-6.504" y="13.5" font-family="Verdana-Bold" font-size="36" fill="#294270">.</tspan>
    </text>
    <text transform="matrix(1, 0, 0, 1, 786.174, 131.5)">
      <tspan x="-6.152" y="13.5" font-family="Verdana-Bold" font-size="36" fill="#294270">i</tspan>
    </text>
    <text transform="matrix(1, 0, 0, 1, 836.174, 131.5)">
      <tspan x="-8.2" y="13.5" font-family="Verdana-Bold" font-size="36" fill="#294270">t</tspan>
    </text>
    <text transform="matrix(1, 0, 0, 1, 886.174, 131.5)">
      <tspan x="-12.586" y="13.5" font-family="Verdana-Bold" font-size="36" fill="#294270">d</tspan>
    </text>
    <text transform="matrix(1, 0, 0, 1, 936.174, 131.5)">
      <tspan x="-7.603" y="13.5" font-family="Verdana-Bold" font-size="36" fill="#294270">f</tspan>
    </text>
    <text transform="matrix(1, 0, 0, 1, 786.174, 183.146)">
      <tspan x="-12.586" y="13.5" font-family="Verdana-Bold" font-size="36" fill="#294270">g</tspan>
    </text>
    <text transform="matrix(1, 0, 0, 1, 836.174, 183.146)">
      <tspan x="-12.586" y="13.5" font-family="Verdana-Bold" font-size="36" fill="#294270">d</tspan>
    </text>
    <text transform="matrix(1, 0, 0, 1, 886.174, 183.146)">
      <tspan x="-10.591" y="13.5" font-family="Verdana-Bold" font-size="36" fill="#294270">c</tspan>
    </text>
    <text transform="matrix(1, 0, 0, 1, 936.174, 183.146)">
      <tspan x="-11.953" y="13.5" font-family="Verdana-Bold" font-size="36" fill="#294270">e</tspan>
    </text>
    <text transform="matrix(1, 0, 0, 1, 786.174, 233.146)">
      <tspan x="-12.023" y="13.5" font-family="Verdana-Bold" font-size="36" fill="#294270">a</tspan>
    </text>
    <text transform="matrix(1, 0, 0, 1, 836.174, 233.146)">
      <tspan x="-8.2" y="13.5" font-family="Verdana-Bold" font-size="36" fill="#294270">t</tspan>
    </text>
    <text transform="matrix(1, 0, 0, 1, 886.174, 233.146)">
      <tspan x="-12.357" y="13.5" font-family="Verdana-Bold" font-size="36" fill="#294270">o</tspan>
    </text>
    <text transform="matrix(1, 0, 0, 1, 936.174, 233.146)">
      <tspan x="-12.823" y="13.5" font-family="Verdana-Bold" font-size="36" fill="#294270">n</tspan>
    </text>
    <text transform="matrix(1, 0, 0, 1, 786.174, 283.146)">
      <tspan x="-12.586" y="13.5" font-family="Verdana-Bold" font-size="36" fill="#294270">q</tspan>
    </text>
    <text transform="matrix(1, 0, 0, 1, 836.174, 283.146)">
      <tspan x="-8.947" y="13.5" font-family="Verdana-Bold" font-size="36" fill="#294270">r</tspan>
    </text>
    <text transform="matrix(1, 0, 0, 1, 886.174, 283.146)">
      <tspan x="-12.586" y="13.5" font-family="Verdana-Bold" font-size="36" fill="#294270">d</tspan>
    </text>
    <text transform="matrix(1, 0, 0, 1, 936.174, 283.146)">
      <tspan x="-6.152" y="13.5" font-family="Verdana-Bold" font-size="36" fill="#294270">i</tspan>
    </text>
    <path d="M99.873,400.5 L149.873,400.5 L149.873,450.5 L99.873,450.5 z" fill-opacity="0" stroke="#65A1CF" stroke-width="2"/>
    <g>
      <path d="M149.873,400.5 L199.873,400.5 L199.873,450.5 L149.873,450.5 z" fill="#65A1CF"/>
      <path d="M149.873,400.5 L199.873,400.5 L199.873,450.5 L149.873,450.5 z" fill-opacity="0" stroke="#65A1CF" stroke-width="2"/>
    </g>
    <g>
      <path d="M199.873,400.5 L249.873,400.5 L249.873,450.5 L199.873,450.5 z" fill="#65A1CF"/>
      <path d="M199.873,400.5 L249.873,400.5 L249.873,450.5 L199.873,450.5 z" fill-opacity="0" stroke="#65A1CF" stroke-width="2"/>
    </g>
    <g>
      <path d="M249.873,400.5 L299.873,400.5 L299.873,450.5 L249.873,450.5 z" fill="#65A1CF"/>
      <path d="M249.873,400.5 L299.873,400.5 L299.873,450.5 L249.873,450.5 z" fill-opacity="0" stroke="#65A1CF" stroke-width="2"/>
    </g>
    <g>
      <path d="M99.873,450.5 L149.873,450.5 L149.873,500.5 L99.873,500.5 z" fill="#65A1CF"/>
      <path d="M99.873,450.5 L149.873,450.5 L149.873,500.5 L99.873,500.5 z" fill-opacity="0" stroke="#65A1CF" stroke-width="2"/>
    </g>
    <g>
      <path d="M149.873,450.5 L199.873,450.5 L199.873,500.5 L149.873,500.5 z" fill="#65A1CF"/>
      <path d="M149.873,450.5 L199.873,450.5 L199.873,500.5 L149.873,500.5 z" fill-opacity="0" stroke="#65A1CF" stroke-width="2"/>
    </g>
    <path d="M199.873,450.5 L249.873,450.5 L249.873,500.5 L199.873,500.5 z" fill-opacity="0" stroke="#65A1CF" stroke-width="2"/>
    <g>
      <path d="M249.873,450.5 L299.873,450.5 L299.873,500.5 L249.873,500.5 z" fill="#65A1CF"/>
      <path d="M249.873,450.5 L299.873,450.5 L299.873,500.5 L249.873,500.5 z" fill-opacity="0" stroke="#65A1CF" stroke-width="2"/>
    </g>
    <path d="M99.873,500.5 L149.873,500.5 L149.873,550.5 L99.873,550.5 z" fill-opacity="0" stroke="#65A1CF" stroke-width="2"/>
    <g>
      <path d="M149.873,500.5 L199.873,500.5 L199.873,550.5 L149.873,550.5 z" fill="#65A1CF"/>
      <path d="M149.873,500.5 L199.873,500.5 L199.873,550.5 L149.873,550.5 z" fill-opacity="0" stroke="#65A1CF" stroke-width="2"/>
    </g>
    <g>
      <path d="M199.873,500.5 L249.873,500.5 L249.873,550.5 L199.873,550.5 z" fill="#65A1CF"/>
      <path d="M199.873,500.5 L249.873,500.5 L249.873,550.5 L199.873,550.5 z" fill-opacity="0" stroke="#65A1CF" stroke-width="2"/>
    </g>
    <path d="M249.873,500.5 L299.873,500.5 L299.873,550.5 L249.873,550.5 z" fill-opacity="0" stroke="#65A1CF" stroke-width="2"/>
    <g>
      <path d="M99.873,550.5 L149.873,550.5 L149.873,600.5 L99.873,600.5 z" fill="#65A1CF"/>
      <path d="M99.873,550.5 L149.873,550.5 L149.873,600.5 L99.873,600.5 z" fill-opacity="0" stroke="#65A1CF" stroke-width="2"/>
    </g>
    <g>
      <path d="M149.873,550.5 L199.873,550.5 L199.873,600.5 L149.873,600.5 z" fill="#65A1CF"/>
      <path d="M149.873,550.5 L199.873,550.5 L199.873,600.5 L149.873,600.5 z" fill-opacity="0" stroke="#65A1CF" stroke-width="2"/>
    </g>
    <g>
      <path d="M199.873,550.5 L249.873,550.5 L249.873,600.5 L199.873,600.5 z" fill="#65A1CF"/>
      <path d="M199.873,550.5 L249.873,550.5 L249.873,600.5 L199.873,600.5 z" fill-opacity="0" stroke="#65A1CF" stroke-width="2"/>
    </g>
    <g>
      <path d="M249.873,550.5 L299.873,550.5 L299.873,600.5 L249.873,600.5 z" fill="#65A1CF"/>
      <path d="M249.873,550.5 L299.873,550.5 L299.873,600.5 L249.873,600.5 z" fill-opacity="0" stroke="#65A1CF" stroke-width="2"/>
    </g>
    <text transform="matrix(1, 0, 0, 1, 124.373, 425)">
      <tspan x="-6.152" y="13.5" font-family="Verdana-Bold" font-size="36" fill="#294270">i</tspan>
    </text>
    <text transform="matrix(1, 0, 0, 1, 224.373, 472.5)">
      <tspan x="-10.591" y="13.5" font-family="Verdana-Bold" font-size="36" fill="#294270">c</tspan>
    </text>
    <text transform="matrix(1, 0, 0, 1, 274.373, 522.5)">
      <tspan x="-12.823" y="13.5" font-family="Verdana-Bold" font-size="36" fill="#294270">n</tspan>
    </text>
    <text transform="matrix(1, 0, 0, 1, 174.373, 572.5)">
      <tspan x="-6.504" y="13.5" font-family="Verdana-Bold" font-size="36" fill="#294270">.</tspan>
    </text>
    <text transform="matrix(1, 0, 0, 1, 174.373, 425)">
      <tspan x="-6.504" y="13.5" font-family="Verdana-Bold" font-size="36" fill="#294270">.</tspan>
    </text>
    <text transform="matrix(1, 0, 0, 1, 224.373, 425)">
      <tspan x="-6.504" y="13.5" font-family="Verdana-Bold" font-size="36" fill="#294270">.</tspan>
    </text>
    <text transform="matrix(1, 0, 0, 1, 274.373, 425)">
      <tspan x="-6.504" y="13.5" font-family="Verdana-Bold" font-size="36" fill="#294270">.</tspan>
    </text>
    <text transform="matrix(1, 0, 0, 1, 274.373, 472.5)">
      <tspan x="-6.504" y="13.5" font-family="Verdana-Bold" font-size="36" fill="#294270">.</tspan>
    </text>
    <text transform="matrix(1, 0, 0, 1, 174.373, 472.5)">
      <tspan x="-6.504" y="13.5" font-family="Verdana-Bold" font-size="36" fill="#294270">.</tspan>
    </text>
    <text transform="matrix(1, 0, 0, 1, 124.373, 472.5)">
      <tspan x="-6.504" y="13.5" font-family="Verdana-Bold" font-size="36" fill="#294270">.</tspan>
    </text>
    <text transform="matrix(1, 0, 0, 1, 124.373, 522.5)">
      <tspan x="-12.023" y="13.5" font-family="Verdana-Bold" font-size="36" fill="#294270">a</tspan>
    </text>
    <text transform="matrix(1, 0, 0, 1, 124.373, 572.5)">
      <tspan x="-6.504" y="13.5" font-family="Verdana-Bold" font-size="36" fill="#294270">.</tspan>
    </text>
    <text transform="matrix(1, 0, 0, 1, 224.373, 522.5)">
      <tspan x="-6.504" y="13.5" font-family="Verdana-Bold" font-size="36" fill="#294270">.</tspan>
    </text>
    <text transform="matrix(1, 0, 0, 1, 174.373, 522.5)">
      <tspan x="-6.504" y="13.5" font-family="Verdana-Bold" font-size="36" fill="#294270">.</tspan>
    </text>
    <text transform="matrix(1, 0, 0, 1, 224.373, 572.5)">
      <tspan x="-6.504" y="13.5" font-family="Verdana-Bold" font-size="36" fill="#294270">.</tspan>
    </text>
    <text transform="matrix(1, 0, 0, 1, 274.373, 572.5)">
      <tspan x="-6.504" y="13.5" font-family="Verdana-Bold" font-size="36" fill="#294270">.</tspan>
    </text>
    <text transform="matrix(1, 0, 0, 1, 313.826, 281.5)">
      <tspan x="-6.504" y="13.5" font-family="Verdana-Bold" font-size="36" fill="#294270">.</tspan>
    </text>
    <path d="M557.115,400.5 L557.115,450.5 L507.115,450.5 L507.115,400.5 z" fill-opacity="0" stroke="#65A1CF" stroke-width="2"/>
    <g>
      <path d="M557.115,450.5 L557.115,500.5 L507.115,500.5 L507.115,450.5 z" fill="#65A1CF"/>
      <path d="M557.115,450.5 L557.115,500.5 L507.115,500.5 L507.115,450.5 z" fill-opacity="0" stroke="#65A1CF" stroke-width="2"/>
    </g>
    <g>
      <path d="M557.115,500.5 L557.115,550.5 L507.115,550.5 L507.115,500.5 z" fill="#65A1CF"/>
      <path d="M557.115,500.5 L557.115,550.5 L507.115,550.5 L507.115,500.5 z" fill-opacity="0" stroke="#65A1CF" stroke-width="2"/>
    </g>
    <g>
      <path d="M557.115,550.5 L557.115,600.5 L507.115,600.5 L507.115,550.5 z" fill="#65A1CF"/>
      <path d="M557.115,550.5 L557.115,600.5 L507.115,600.5 L507.115,550.5 z" fill-opacity="0" stroke="#65A1CF" stroke-width="2"/>
    </g>
    <g>
      <path d="M507.115,400.5 L507.115,450.5 L457.115,450.5 L457.115,400.5 z" fill="#65A1CF"/>
      <path d="M507.115,400.5 L507.115,450.5 L457.115,450.5 L457.115,400.5 z" fill-opacity="0" stroke="#65A1CF" stroke-width="2"/>
    </g>
    <g>
      <path d="M507.115,450.5 L507.115,500.5 L457.115,500.5 L457.115,450.5 z" fill="#65A1CF"/>
      <path d="M507.115,450.5 L507.115,500.5 L457.115,500.5 L457.115,450.5 z" fill-opacity="0" stroke="#65A1CF" stroke-width="2"/>
    </g>
    <path d="M507.115,500.5 L507.115,550.5 L457.115,550.5 L457.115,500.5 z" fill-opacity="0" stroke="#65A1CF" stroke-width="2"/>
    <g>
      <path d="M507.115,550.5 L507.115,600.5 L457.115,600.5 L457.115,550.5 z" fill="#65A1CF"/>
      <path d="M507.115,550.5 L507.115,600.5 L457.115,600.5 L457.115,550.5 z" fill-opacity="0" stroke="#65A1CF" stroke-width="2"/>
    </g>
    <path d="M457.115,400.5 L457.115,450.5 L407.115,450.5 L407.115,400.5 z" fill-opacity="0" stroke="#65A1CF" stroke-width="2"/>
    <g>
      <path d="M457.115,450.5 L457.115,500.5 L407.115,500.5 L407.115,450.5 z" fill="#65A1CF"/>
      <path d="M457.115,450.5 L457.115,500.5 L407.115,500.5 L407.115,450.5 z" fill-opacity="0" stroke="#65A1CF" stroke-width="2"/>
    </g>
    <g>
      <path d="M457.115,500.5 L457.115,550.5 L407.115,550.5 L407.115,500.5 z" fill="#65A1CF"/>
      <path d="M457.115,500.5 L457.115,550.5 L407.115,550.5 L407.115,500.5 z" fill-opacity="0" stroke="#65A1CF" stroke-width="2"/>
    </g>
    <path d="M457.115,550.5 L457.115,600.5 L407.115,600.5 L407.115,550.5 z" fill-opacity="0" stroke="#65A1CF" stroke-width="2"/>
    <g>
      <path d="M407.115,400.5 L407.115,450.5 L357.115,450.5 L357.115,400.5 z" fill="#65A1CF"/>
      <path d="M407.115,400.5 L407.115,450.5 L357.115,450.5 L357.115,400.5 z" fill-opacity="0" stroke="#65A1CF" stroke-width="2"/>
    </g>
    <g>
      <path d="M407.115,450.5 L407.115,500.5 L357.115,500.5 L357.115,450.5 z" fill="#65A1CF"/>
      <path d="M407.115,450.5 L407.115,500.5 L357.115,500.5 L357.115,450.5 z" fill-opacity="0" stroke="#65A1CF" stroke-width="2"/>
    </g>
    <g>
      <path d="M407.115,500.5 L407.115,550.5 L357.115,550.5 L357.115,500.5 z" fill="#65A1CF"/>
      <path d="M407.115,500.5 L407.115,550.5 L357.115,550.5 L357.115,500.5 z" fill-opacity="0" stroke="#65A1CF" stroke-width="2"/>
    </g>
    <g>
      <path d="M407.115,550.5 L407.115,600.5 L357.115,600.5 L357.115,550.5 z" fill="#65A1CF"/>
      <path d="M407.115,550.5 L407.115,600.5 L357.115,600.5 L357.115,550.5 z" fill-opacity="0" stroke="#65A1CF" stroke-width="2"/>
    </g>
    <text transform="matrix(-0, 1, -1, -0, 384.115, 475)">
      <tspan x="-6.504" y="13.5" font-family="Verdana-Bold" font-size="36" fill="#294270">.</tspan>
    </text>
    <text transform="matrix(-0, 1, -1, -0, 531.615, 475)">
      <tspan x="-6.504" y="13.5" font-family="Verdana-Bold" font-size="36" fill="#294270">.</tspan>
    </text>
    <text transform="matrix(-0, 1, -1, -0, 531.615, 525)">
      <tspan x="-6.504" y="13.5" font-family="Verdana-Bold" font-size="36" fill="#294270">.</tspan>
    </text>
    <text transform="matrix(-0, 1, -1, -0, 531.615, 575)">
      <tspan x="-6.504" y="13.5" font-family="Verdana-Bold" font-size="36" fill="#294270">.</tspan>
    </text>
    <text transform="matrix(-0, 1, -1, -0, 484.115, 575)">
      <tspan x="-6.504" y="13.5" font-family="Verdana-Bold" font-size="36" fill="#294270">.</tspan>
    </text>
    <text transform="matrix(-0, 1, -1, -0, 484.115, 475)">
      <tspan x="-6.504" y="13.5" font-family="Verdana-Bold" font-size="36" fill="#294270">.</tspan>
    </text>
    <text transform="matrix(-0, 1, -1, -0, 484.115, 425)">
      <tspan x="-6.504" y="13.5" font-family="Verdana-Bold" font-size="36" fill="#294270">.</tspan>
    </text>
    <text transform="matrix(-0, 1, -1, -0, 384.115, 425)">
      <tspan x="-6.504" y="13.5" font-family="Verdana-Bold" font-size="36" fill="#294270">.</tspan>
    </text>
    <text transform="matrix(-0, 1, -1, -0, 434.115, 525)">
      <tspan x="-6.504" y="13.5" font-family="Verdana-Bold" font-size="36" fill="#294270">.</tspan>
    </text>
    <text transform="matrix(-0, 1, -1, -0, 434.115, 475)">
      <tspan x="-6.504" y="13.5" font-family="Verdana-Bold" font-size="36" fill="#294270">.</tspan>
    </text>
    <text transform="matrix(-0, 1, -1, -0, 384.115, 525)">
      <tspan x="-6.504" y="13.5" font-family="Verdana-Bold" font-size="36" fill="#294270">.</tspan>
    </text>
    <text transform="matrix(-0, 1, -1, -0, 384.115, 575)">
      <tspan x="-6.504" y="13.5" font-family="Verdana-Bold" font-size="36" fill="#294270">.</tspan>
    </text>
    <text transform="matrix(1, 0, 0, 1, 434.115, 425)">
      <tspan x="-8.2" y="13.5" font-family="Verdana-Bold" font-size="36" fill="#294270">t</tspan>
    </text>
    <text transform="matrix(1, 0, 0, 1, 531.615, 425)">
      <tspan x="-7.603" y="13.5" font-family="Verdana-Bold" font-size="36" fill="#294270">f</tspan>
    </text>
    <text transform="matrix(1, 0, 0, 1, 481.615, 522.5)">
      <tspan x="-12.357" y="13.5" font-family="Verdana-Bold" font-size="36" fill="#294270">o</tspan>
    </text>
    <text transform="matrix(1, 0, 0, 1, 434.115, 572.5)">
      <tspan x="-8.947" y="13.5" font-family="Verdana-Bold" font-size="36" fill="#294270">r</tspan>
    </text>
    <path d="M817.26,600.5 L767.26,600.5 L767.26,550.5 L817.26,550.5 z" fill-opacity="0" stroke="#65A1CF" stroke-width="2"/>
    <g>
      <path d="M767.26,600.5 L717.26,600.5 L717.26,550.5 L767.26,550.5 z" fill="#65A1CF"/>
      <path d="M767.26,600.5 L717.26,600.5 L717.26,550.5 L767.26,550.5 z" fill-opacity="0" stroke="#65A1CF" stroke-width="2"/>
    </g>
    <g>
      <path d="M717.26,600.5 L667.26,600.5 L667.26,550.5 L717.26,550.5 z" fill="#65A1CF"/>
      <path d="M717.26,600.5 L667.26,600.5 L667.26,550.5 L717.26,550.5 z" fill-opacity="0" stroke="#65A1CF" stroke-width="2"/>
    </g>
    <g>
      <path d="M667.26,600.5 L617.26,600.5 L617.26,550.5 L667.26,550.5 z" fill="#65A1CF"/>
      <path d="M667.26,600.5 L617.26,600.5 L617.26,550.5 L667.26,550.5 z" fill-opacity="0" stroke="#65A1CF" stroke-width="2"/>
    </g>
    <g>
      <path d="M817.26,550.5 L767.26,550.5 L767.26,500.5 L817.26,500.5 z" fill="#65A1CF"/>
      <path d="M817.26,550.5 L767.26,550.5 L767.26,500.5 L817.26,500.5 z" fill-opacity="0" stroke="#65A1CF" stroke-width="2"/>
    </g>
    <g>
      <path d="M767.26,550.5 L717.26,550.5 L717.26,500.5 L767.26,500.5 z" fill="#65A1CF"/>
      <path d="M767.26,550.5 L717.26,550.5 L717.26,500.5 L767.26,500.5 z" fill-opacity="0" stroke="#65A1CF" stroke-width="2"/>
    </g>
    <path d="M717.26,550.5 L667.26,550.5 L667.26,500.5 L717.26,500.5 z" fill-opacity="0" stroke="#65A1CF" stroke-width="2"/>
    <g>
      <path d="M667.26,550.5 L617.26,550.5 L617.26,500.5 L667.26,500.5 z" fill="#65A1CF"/>
      <path d="M667.26,550.5 L617.26,550.5 L617.26,500.5 L667.26,500.5 z" fill-opacity="0" stroke="#65A1CF" stroke-width="2"/>
    </g>
    <path d="M817.26,500.5 L767.26,500.5 L767.26,450.5 L817.26,450.5 z" fill-opacity="0" stroke="#65A1CF" stroke-width="2"/>
    <g>
      <path d="M767.26,500.5 L717.26,500.5 L717.26,450.5 L767.26,450.5 z" fill="#65A1CF"/>
      <path d="M767.26,500.5 L717.26,500.5 L717.26,450.5 L767.26,450.5 z" fill-opacity="0" stroke="#65A1CF" stroke-width="2"/>
    </g>
    <g>
      <path d="M717.26,500.5 L667.26,500.5 L667.26,450.5 L717.26,450.5 z" fill="#65A1CF"/>
      <path d="M717.26,500.5 L667.26,500.5 L667.26,450.5 L717.26,450.5 z" fill-opacity="0" stroke="#65A1CF" stroke-width="2"/>
    </g>
    <path d="M667.26,500.5 L617.26,500.5 L617.26,450.5 L667.26,450.5 z" fill-opacity="0" stroke="#65A1CF" stroke-width="2"/>
    <g>
      <path d="M817.26,450.5 L767.26,450.5 L767.26,400.5 L817.26,400.5 z" fill="#65A1CF"/>
      <path d="M817.26,450.5 L767.26,450.5 L767.26,400.5 L817.26,400.5 z" fill-opacity="0" stroke="#65A1CF" stroke-width="2"/>
    </g>
    <g>
      <path d="M767.26,450.5 L717.26,450.5 L717.26,400.5 L767.26,400.5 z" fill="#65A1CF"/>
      <path d="M767.26,450.5 L717.26,450.5 L717.26,400.5 L767.26,400.5 z" fill-opacity="0" stroke="#65A1CF" stroke-width="2"/>
    </g>
    <g>
      <path d="M717.26,450.5 L667.26,450.5 L667.26,400.5 L717.26,400.5 z" fill="#65A1CF"/>
      <path d="M717.26,450.5 L667.26,450.5 L667.26,400.5 L717.26,400.5 z" fill-opacity="0" stroke="#65A1CF" stroke-width="2"/>
    </g>
    <g>
      <path d="M667.26,450.5 L617.26,450.5 L617.26,400.5 L667.26,400.5 z" fill="#65A1CF"/>
      <path d="M667.26,450.5 L617.26,450.5 L617.26,400.5 L667.26,400.5 z" fill-opacity="0" stroke="#65A1CF" stroke-width="2"/>
    </g>
    <text transform="matrix(-1, 0, -0, -1, 741.76, 427.5)">
      <tspan x="-6.504" y="13.5" font-family="Verdana-Bold" font-size="36" fill="#294270">.</tspan>
    </text>
    <text transform="matrix(-1, 0, -0, -1, 741.76, 575)">
      <tspan x="-6.504" y="13.5" font-family="Verdana-Bold" font-size="36" fill="#294270">.</tspan>
    </text>
    <text transform="matrix(-1, 0, -0, -1, 691.76, 575)">
      <tspan x="-6.504" y="13.5" font-family="Verdana-Bold" font-size="36" fill="#294270">.</tspan>
    </text>
    <text transform="matrix(-1, 0, -0, -1, 641.76, 575)">
      <tspan x="-6.504" y="13.5" font-family="Verdana-Bold" font-size="36" fill="#294270">.</tspan>
    </text>
    <text transform="matrix(-1, 0, -0, -1, 641.76, 527.5)">
      <tspan x="-6.504" y="13.5" font-family="Verdana-Bold" font-size="36" fill="#294270">.</tspan>
    </text>
    <text transform="matrix(-1, 0, -0, -1, 741.76, 527.5)">
      <tspan x="-6.504" y="13.5" font-family="Verdana-Bold" font-size="36" fill="#294270">.</tspan>
    </text>
    <text transform="matrix(-1, 0, -0, -1, 791.76, 527.5)">
      <tspan x="-6.504" y="13.5" font-family="Verdana-Bold" font-size="36" fill="#294270">.</tspan>
    </text>
    <text transform="matrix(-1, 0, -0, -1, 791.76, 427.5)">
      <tspan x="-6.504" y="13.5" font-family="Verdana-Bold" font-size="36" fill="#294270">.</tspan>
    </text>
    <text transform="matrix(-1, 0, -0, -1, 691.76, 477.5)">
      <tspan x="-6.504" y="13.5" font-family="Verdana-Bold" font-size="36" fill="#294270">.</tspan>
    </text>
    <text transform="matrix(-1, 0, -0, -1, 741.76, 477.5)">
      <tspan x="-6.504" y="13.5" font-family="Verdana-Bold" font-size="36" fill="#294270">.</tspan>
    </text>
    <text transform="matrix(-1, 0, -0, -1, 691.76, 427.5)">
      <tspan x="-6.504" y="13.5" font-family="Verdana-Bold" font-size="36" fill="#294270">.</tspan>
    </text>
    <text transform="matrix(-1, 0, -0, -1, 641.76, 427.5)">
      <tspan x="-6.504" y="13.5" font-family="Verdana-Bold" font-size="36" fill="#294270">.</tspan>
    </text>
    <text transform="matrix(1, 0, 0, 1, 641.76, 472.5)">
      <tspan x="-12.586" y="13.5" font-family="Verdana-Bold" font-size="36" fill="#294270">g</tspan>
    </text>
    <text transform="matrix(1, 0, 0, 1, 791.76, 472.5)">
      <tspan x="-11.953" y="13.5" font-family="Verdana-Bold" font-size="36" fill="#294270">e</tspan>
    </text>
    <text transform="matrix(1, 0, 0, 1, 691.76, 522.5)">
      <tspan x="-8.2" y="13.5" font-family="Verdana-Bold" font-size="36" fill="#294270">t</tspan>
    </text>
    <text transform="matrix(1, 0, 0, 1, 791.76, 572.5)">
      <tspan x="-6.152" y="13.5" font-family="Verdana-Bold" font-size="36" fill="#294270">i</tspan>
    </text>
    <path d="M878.619,600.5 L878.619,550.5 L928.619,550.5 L928.619,600.5 z" fill-opacity="0" stroke="#65A1CF" stroke-width="2"/>
    <g>
      <path d="M878.619,550.5 L878.619,500.5 L928.619,500.5 L928.619,550.5 z" fill="#65A1CF"/>
      <path d="M878.619,550.5 L878.619,500.5 L928.619,500.5 L928.619,550.5 z" fill-opacity="0" stroke="#65A1CF" stroke-width="2"/>
    </g>
    <g>
      <path d="M878.619,500.5 L878.619,450.5 L928.619,450.5 L928.619,500.5 z" fill="#65A1CF"/>
      <path d="M878.619,500.5 L878.619,450.5 L928.619,450.5 L928.619,500.5 z" fill-opacity="0" stroke="#65A1CF" stroke-width="2"/>
    </g>
    <g>
      <path d="M878.619,450.5 L878.619,400.5 L928.619,400.5 L928.619,450.5 z" fill="#65A1CF"/>
      <path d="M878.619,450.5 L878.619,400.5 L928.619,400.5 L928.619,450.5 z" fill-opacity="0" stroke="#65A1CF" stroke-width="2"/>
    </g>
    <g>
      <path d="M928.619,600.5 L928.619,550.5 L978.619,550.5 L978.619,600.5 z" fill="#65A1CF"/>
      <path d="M928.619,600.5 L928.619,550.5 L978.619,550.5 L978.619,600.5 z" fill-opacity="0" stroke="#65A1CF" stroke-width="2"/>
    </g>
    <g>
      <path d="M928.619,550.5 L928.619,500.5 L978.619,500.5 L978.619,550.5 z" fill="#65A1CF"/>
      <path d="M928.619,550.5 L928.619,500.5 L978.619,500.5 L978.619,550.5 z" fill-opacity="0" stroke="#65A1CF" stroke-width="2"/>
    </g>
    <path d="M928.619,500.5 L928.619,450.5 L978.619,450.5 L978.619,500.5 z" fill-opacity="0" stroke="#65A1CF" stroke-width="2"/>
    <g>
      <path d="M928.619,450.5 L928.619,400.5 L978.619,400.5 L978.619,450.5 z" fill="#65A1CF"/>
      <path d="M928.619,450.5 L928.619,400.5 L978.619,400.5 L978.619,450.5 z" fill-opacity="0" stroke="#65A1CF" stroke-width="2"/>
    </g>
    <path d="M978.619,600.5 L978.619,550.5 L1028.619,550.5 L1028.619,600.5 z" fill-opacity="0" stroke="#65A1CF" stroke-width="2"/>
    <g>
      <path d="M978.619,550.5 L978.619,500.5 L1028.619,500.5 L1028.619,550.5 z" fill="#65A1CF"/>
      <path d="M978.619,550.5 L978.619,500.5 L1028.619,500.5 L1028.619,550.5 z" fill-opacity="0" stroke="#65A1CF" stroke-width="2"/>
    </g>
    <g>
      <path d="M978.619,500.5 L978.619,450.5 L1028.619,450.5 L1028.619,500.5 z" fill="#65A1CF"/>
      <path d="M978.619,500.5 L978.619,450.5 L1028.619,450.5 L1028.619,500.5 z" fill-opacity="0" stroke="#65A1CF" stroke-width="2"/>
    </g>
    <path d="M978.619,450.5 L978.619,400.5 L1028.619,400.5 L1028.619,450.5 z" fill-opacity="0" stroke="#65A1CF" stroke-width="2"/>
    <g>
      <path d="M1028.619,600.5 L1028.619,550.5 L1078.619,550.5 L1078.619,600.5 z" fill="#65A1CF"/>
      <path d="M1028.619,600.5 L1028.619,550.5 L1078.619,550.5 L1078.619,600.5 z" fill-opacity="0" stroke="#65A1CF" stroke-width="2"/>
    </g>
    <g>
      <path d="M1028.619,550.5 L1028.619,500.5 L1078.619,500.5 L1078.619,550.5 z" fill="#65A1CF"/>
      <path d="M1028.619,550.5 L1028.619,500.5 L1078.619,500.5 L1078.619,550.5 z" fill-opacity="0" stroke="#65A1CF" stroke-width="2"/>
    </g>
    <g>
      <path d="M1028.619,500.5 L1028.619,450.5 L1078.619,450.5 L1078.619,500.5 z" fill="#65A1CF"/>
      <path d="M1028.619,500.5 L1028.619,450.5 L1078.619,450.5 L1078.619,500.5 z" fill-opacity="0" stroke="#65A1CF" stroke-width="2"/>
    </g>
    <g>
      <path d="M1028.619,450.5 L1028.619,400.5 L1078.619,400.5 L1078.619,450.5 z" fill="#65A1CF"/>
      <path d="M1028.619,450.5 L1028.619,400.5 L1078.619,400.5 L1078.619,450.5 z" fill-opacity="0" stroke="#65A1CF" stroke-width="2"/>
    </g>
    <text transform="matrix(-0, -1, 1, -0, 1050.619, 525)">
      <tspan x="-6.504" y="13.5" font-family="Verdana-Bold" font-size="36" fill="#294270">.</tspan>
    </text>
    <text transform="matrix(-0, -1, 1, -0, 903.119, 525)">
      <tspan x="-6.504" y="13.5" font-family="Verdana-Bold" font-size="36" fill="#294270">.</tspan>
    </text>
    <text transform="matrix(-0, -1, 1, -0, 903.119, 475)">
      <tspan x="-6.504" y="13.5" font-family="Verdana-Bold" font-size="36" fill="#294270">.</tspan>
    </text>
    <text transform="matrix(-0, -1, 1, -0, 903.119, 425)">
      <tspan x="-6.504" y="13.5" font-family="Verdana-Bold" font-size="36" fill="#294270">.</tspan>
    </text>
    <text transform="matrix(-0, -1, 1, -0, 950.619, 425)">
      <tspan x="-6.504" y="13.5" font-family="Verdana-Bold" font-size="36" fill="#294270">.</tspan>
    </text>
    <text transform="matrix(-0, -1, 1, -0, 950.619, 525)">
      <tspan x="-6.504" y="13.5" font-family="Verdana-Bold" font-size="36" fill="#294270">.</tspan>
    </text>
    <text transform="matrix(-0, -1, 1, -0, 950.619, 575)">
      <tspan x="-6.504" y="13.5" font-family="Verdana-Bold" font-size="36" fill="#294270">.</tspan>
    </text>
    <text transform="matrix(-0, -1, 1, -0, 1050.619, 575)">
      <tspan x="-6.504" y="13.5" font-family="Verdana-Bold" font-size="36" fill="#294270">.</tspan>
    </text>
    <text transform="matrix(-0, -1, 1, -0, 1000.619, 475)">
      <tspan x="-6.504" y="13.5" font-family="Verdana-Bold" font-size="36" fill="#294270">.</tspan>
    </text>
    <text transform="matrix(-0, -1, 1, -0, 1000.619, 525)">
      <tspan x="-6.504" y="13.5" font-family="Verdana-Bold" font-size="36" fill="#294270">.</tspan>
    </text>
    <text transform="matrix(-0, -1, 1, -0, 1050.619, 475)">
      <tspan x="-6.504" y="13.5" font-family="Verdana-Bold" font-size="36" fill="#294270">.</tspan>
    </text>
    <text transform="matrix(-0, -1, 1, -0, 1050.619, 425)">
      <tspan x="-6.504" y="13.5" font-family="Verdana-Bold" font-size="36" fill="#294270">.</tspan>
    </text>
    <text transform="matrix(1, 0, 0, 1, 1000.619, 425)">
      <tspan x="-12.586" y="13.5" font-family="Verdana-Bold" font-size="36" fill="#294270">d</tspan>
    </text>
    <text transform="matrix(1, 0, 0, 1, 950.619, 472.5)">
      <tspan x="-12.586" y="13.5" font-family="Verdana-Bold" font-size="36" fill="#294270">d</tspan>
    </text>
    <text transform="matrix(1, 0, 0, 1, 903.119, 572.5)">
      <tspan x="-12.586" y="13.5" font-family="Verdana-Bold" font-size="36" fill="#294270">q</tspan>
    </text>
    <text transform="matrix(1, 0, 0, 1, 1000.619, 572.5)">
      <tspan x="-12.586" y="13.5" font-family="Verdana-Bold" font-size="36" fill="#294270">d</tspan>
    </text>
    <text transform="matrix(1, 0, 0, 1, 588.746, 342.5)">
      <tspan x="-101.162" y="13.5" font-family="Verdana-Bold" font-size="36" fill="#294270">Iterations</tspan>
    </text>
    <text transform="matrix(1, 0, 0, 1, 202.217, 622.5)">
      <tspan x="-41.59" y="13.5" font-family="Verdana-Bold" font-size="36" fill="#294270">ican</tspan>
    </text>
    <text transform="matrix(1, 0, 0, 1, 456.865, 622.5)">
      <tspan x="-37.107" y="13.5" font-family="Verdana-Bold" font-size="36" fill="#294270">tfor</tspan>
    </text>
    <text transform="matrix(1, 0, 0, 1, 696.364, 622.5)">
      <tspan x="-38.892" y="13.5" font-family="Verdana-Bold" font-size="36" fill="#294270">geti</tspan>
    </text>
    <text transform="matrix(1, 0, 0, 1, 980.366, 622.5)">
      <tspan x="-50.344" y="13.5" font-family="Verdana-Bold" font-size="36" fill="#294270">ddqd</tspan>
    </text>
    <text transform="matrix(1, 0, 0, 1, 323.216, 622.5)">
      <tspan x="-15.609" y="13.5" font-family="Verdana-Bold" font-size="36" fill="#294270">+</tspan>
    </text>
    <text transform="matrix(1, 0, 0, 1, 588.746, 622.5)">
      <tspan x="-15.609" y="13.5" font-family="Verdana-Bold" font-size="36" fill="#294270">+</tspan>
    </text>
    <text transform="matrix(1, 0, 0, 1, 845.565, 622.5)">
      <tspan x="-15.609" y="13.5" font-family="Verdana-Bold" font-size="36" fill="#294270">+</tspan>
    </text>
  </g>
  <defs/>
</svg>
