<?xml version="1.0" encoding="UTF-8"?>
<!DOCTYPE svg PUBLIC "-//W3C//DTD SVG 1.1//EN" "http://www.w3.org/Graphics/SVG/1.1/DTD/svg11.dtd">
<svg version="1.1" xmlns="http://www.w3.org/2000/svg" xmlns:xlink="http://www.w3.org/1999/xlink" x="0" y="0" width="540" height="220" viewBox="0, 0, 540, 220">
  <g id="Layer_1">
    <path d="M155.5,80.5 L185.5,80.5" fill-opacity="0" stroke="#65A1CF" stroke-width="6"/>
    <path d="M155.5,140.5 L185.5,140.5" fill-opacity="0" stroke="#65A1CF" stroke-width="6"/>
    <path d="M140.5,35.5 L140.5,65.5" fill-opacity="0" stroke="#65A1CF" stroke-width="6"/>
    <path d="M80.5,35.5 L80.5,65.5" fill-opacity="0" stroke="#65A1CF" stroke-width="6"/>
    <path d="M110.5,125.5 L110.5,155.5" fill-opacity="0" stroke="#006CA9" stroke-width="6"/>
    <path d="M110.5,65.5 L110.5,95.5" fill-opacity="0" stroke="#006CA9" stroke-width="6"/>
    <path d="M50.5,65.5 L50.5,95.5" fill-opacity="0" stroke="#006CA9" stroke-width="6"/>
    <path d="M50.5,125.5 L50.5,155.5" fill-opacity="0" stroke="#006CA9" stroke-width="6"/>
    <path d="M65.5,50.5 L95.5,50.5" fill-opacity="0" stroke="#006CA9" stroke-width="6"/>
    <path d="M125.5,50.5 L155.5,50.5" fill-opacity="0" stroke="#006CA9" stroke-width="6"/>
    <path d="M170.5,65.5 L170.5,95.5" fill-opacity="0" stroke="#006CA9" stroke-width="6"/>
    <path d="M170.5,125.5 L170.5,155.5" fill-opacity="0" stroke="#006CA9" stroke-width="6"/>
    <path d="M65.5,110.5 L95.5,110.5" fill-opacity="0" stroke="#006CA9" stroke-width="6"/>
    <path d="M125.5,110.5 L155.5,110.5" fill-opacity="0" stroke="#006CA9" stroke-width="6"/>
    <path d="M125.5,170.5 L155.5,170.5" fill-opacity="0" stroke="#006CA9" stroke-width="6"/>
    <path d="M65.5,170.5 L95.5,170.5" fill-opacity="0" stroke="#006CA9" stroke-width="6"/>
    <path d="M35.5,80.5 L65.5,80.5" fill-opacity="0" stroke="#294270" stroke-width="6"/>
    <path d="M35.5,140.5 L65.5,140.5" fill-opacity="0" stroke="#294270" stroke-width="6"/>
    <path d="M20.5,95.5 L20.5,125.5" fill-opacity="0" stroke="#294270" stroke-width="6"/>
    <path d="M79.122,95.5 L79.122,125.5" fill-opacity="0" stroke="#294270" stroke-width="6"/>
    <path d="M95.5,80.5 L125.5,80.5" fill-opacity="0" stroke="#294270" stroke-width="6"/>
    <path d="M140.5,95.5 L140.5,125.5" fill-opacity="0" stroke="#294270" stroke-width="6"/>
    <path d="M95.5,140.5 L125.5,140.5" fill-opacity="0" stroke="#294270" stroke-width="6"/>
    <path d="M35.5,200.5 L65.5,200.5" fill-opacity="0" stroke="#294270" stroke-width="6"/>
    <path d="M95.5,200.5 L125.5,200.5" fill-opacity="0" stroke="#294270" stroke-width="6"/>
    <path d="M20.5,155.5 L20.5,185.5" fill-opacity="0" stroke="#294270" stroke-width="6"/>
    <path d="M79.122,155.5 L79.122,185.5" fill-opacity="0" stroke="#294270" stroke-width="6"/>
    <path d="M140.5,155.5 L140.5,185.5" fill-opacity="0" stroke="#294270" stroke-width="6"/>
    <path d="M95.5,20.5 L125.5,20.5" fill-opacity="0" stroke="#65A1CF" stroke-width="6"/>
    <path d="M155.5,20.5 L185.5,20.5" fill-opacity="0" stroke="#65A1CF" stroke-width="6"/>
    <path d="M200.5,35.5 L200.5,65.5" fill-opacity="0" stroke="#65A1CF" stroke-width="6"/>
    <path d="M200.5,95.5 L200.5,125.5" fill-opacity="0" stroke="#65A1CF" stroke-width="6"/>
    <path d="M40.5,60.5 L30.5,70.5" fill-opacity="0" stroke="#006CA9" stroke-width="6"/>
    <path d="M70.5,30.5 L60.5,40.5" fill-opacity="0" stroke="#65A1CF" stroke-width="6"/>
    <path d="M100.5,60.5 L90.5,70.5" fill-opacity="0" stroke="#006CA9" stroke-width="6"/>
    <path d="M130.5,30.5 L120.5,40.5" fill-opacity="0" stroke="#65A1CF" stroke-width="6"/>
    <path d="M160.5,60.5 L150.5,70.5" fill-opacity="0" stroke="#006CA9" stroke-width="6"/>
    <path d="M190.5,30.5 L180.5,40.5" fill-opacity="0" stroke="#65A1CF" stroke-width="6"/>
    <path d="M160.5,120.5 L150.5,130.5" fill-opacity="0" stroke="#006CA9" stroke-width="6"/>
    <path d="M190.5,90.5 L180.5,100.5" fill-opacity="0" stroke="#65A1CF" stroke-width="6"/>
    <path d="M160.5,180.5 L150.5,190.5" fill-opacity="0" stroke="#006CA9" stroke-width="6"/>
    <path d="M190.5,150.5 L180.5,160.5" fill-opacity="0" stroke="#65A1CF" stroke-width="6"/>
    <path d="M40.5,180.5 L30.5,190.5" fill-opacity="0" stroke="#006CA9" stroke-width="6"/>
    <path d="M100.5,180.5 L90.5,190.5" fill-opacity="0" stroke="#006CA9" stroke-width="6"/>
    <path d="M40.5,120.5 L30.5,130.5" fill-opacity="0" stroke="#006CA9" stroke-width="6"/>
    <path d="M100.5,120.5 L90.5,130.5" fill-opacity="0" stroke="#006CA9" stroke-width="6"/>
    <path d="M70.5,150.5 L60.5,160.5" fill-opacity="0" stroke="#65A1CF" stroke-width="6"/>
    <path d="M130.5,150.5 L120.5,160.5" fill-opacity="0" stroke="#65A1CF" stroke-width="6" opacity="0.75"/>
    <path d="M70.5,90.5 L60.5,100.5" fill-opacity="0" stroke="#65A1CF" stroke-width="6"/>
    <path d="M130.5,90.5 L120.5,100.5" fill-opacity="0" stroke="#65A1CF" stroke-width="6"/>
    <g>
      <path d="M20.5,95.5 C12.216,95.5 5.5,88.784 5.5,80.5 C5.5,72.216 12.216,65.5 20.5,65.5 C28.784,65.5 35.5,72.216 35.5,80.5 C35.5,88.784 28.784,95.5 20.5,95.5 z" fill="#006CA9"/>
      <path d="M20.5,95.5 C12.216,95.5 5.5,88.784 5.5,80.5 C5.5,72.216 12.216,65.5 20.5,65.5 C28.784,65.5 35.5,72.216 35.5,80.5 C35.5,88.784 28.784,95.5 20.5,95.5 z" fill-opacity="0" stroke="#294270" stroke-width="1"/>
    </g>
    <g>
      <path d="M80.5,95.5 C72.216,95.5 65.5,88.784 65.5,80.5 C65.5,72.216 72.216,65.5 80.5,65.5 C88.784,65.5 95.5,72.216 95.5,80.5 C95.5,88.784 88.784,95.5 80.5,95.5 z" fill="#F0801A"/>
      <path d="M80.5,95.5 C72.216,95.5 65.5,88.784 65.5,80.5 C65.5,72.216 72.216,65.5 80.5,65.5 C88.784,65.5 95.5,72.216 95.5,80.5 C95.5,88.784 88.784,95.5 80.5,95.5 z" fill-opacity="0" stroke="#294270" stroke-width="1"/>
    </g>
    <g>
      <path d="M80.5,155.5 C72.216,155.5 65.5,148.784 65.5,140.5 C65.5,132.216 72.216,125.5 80.5,125.5 C88.784,125.5 95.5,132.216 95.5,140.5 C95.5,148.784 88.784,155.5 80.5,155.5 z" fill="#006CA9"/>
      <path d="M80.5,155.5 C72.216,155.5 65.5,148.784 65.5,140.5 C65.5,132.216 72.216,125.5 80.5,125.5 C88.784,125.5 95.5,132.216 95.5,140.5 C95.5,148.784 88.784,155.5 80.5,155.5 z" fill-opacity="0" stroke="#294270" stroke-width="1"/>
    </g>
    <g>
      <path d="M20.5,155.5 C12.216,155.5 5.5,148.784 5.5,140.5 C5.5,132.216 12.216,125.5 20.5,125.5 C28.784,125.5 35.5,132.216 35.5,140.5 C35.5,148.784 28.784,155.5 20.5,155.5 z" fill="#F0801A"/>
      <path d="M20.5,155.5 C12.216,155.5 5.5,148.784 5.5,140.5 C5.5,132.216 12.216,125.5 20.5,125.5 C28.784,125.5 35.5,132.216 35.5,140.5 C35.5,148.784 28.784,155.5 20.5,155.5 z" fill-opacity="0" stroke="#294270" stroke-width="1"/>
    </g>
    <g>
      <path d="M140.5,155.5 C132.216,155.5 125.5,148.784 125.5,140.5 C125.5,132.216 132.216,125.5 140.5,125.5 C148.784,125.5 155.5,132.216 155.5,140.5 C155.5,148.784 148.784,155.5 140.5,155.5 z" fill="#F0801A"/>
      <path d="M140.5,155.5 C132.216,155.5 125.5,148.784 125.5,140.5 C125.5,132.216 132.216,125.5 140.5,125.5 C148.784,125.5 155.5,132.216 155.5,140.5 C155.5,148.784 148.784,155.5 140.5,155.5 z" fill-opacity="0" stroke="#294270" stroke-width="1"/>
    </g>
    <g>
      <path d="M140.5,95.5 C132.216,95.5 125.5,88.784 125.5,80.5 C125.5,72.216 132.216,65.5 140.5,65.5 C148.784,65.5 155.5,72.216 155.5,80.5 C155.5,88.784 148.784,95.5 140.5,95.5 z" fill="#006CA9"/>
      <path d="M140.5,95.5 C132.216,95.5 125.5,88.784 125.5,80.5 C125.5,72.216 132.216,65.5 140.5,65.5 C148.784,65.5 155.5,72.216 155.5,80.5 C155.5,88.784 148.784,95.5 140.5,95.5 z" fill-opacity="0" stroke="#294270" stroke-width="1"/>
    </g>
    <g>
      <path d="M20.5,215.5 C12.216,215.5 5.5,208.784 5.5,200.5 C5.5,192.216 12.216,185.5 20.5,185.5 C28.784,185.5 35.5,192.216 35.5,200.5 C35.5,208.784 28.784,215.5 20.5,215.5 z" fill="#006CA9"/>
      <path d="M20.5,215.5 C12.216,215.5 5.5,208.784 5.5,200.5 C5.5,192.216 12.216,185.5 20.5,185.5 C28.784,185.5 35.5,192.216 35.5,200.5 C35.5,208.784 28.784,215.5 20.5,215.5 z" fill-opacity="0" stroke="#294270" stroke-width="1"/>
    </g>
    <g>
      <path d="M80.5,215.5 C72.216,215.5 65.5,208.784 65.5,200.5 C65.5,192.216 72.216,185.5 80.5,185.5 C88.784,185.5 95.5,192.216 95.5,200.5 C95.5,208.784 88.784,215.5 80.5,215.5 z" fill="#F0801A"/>
      <path d="M80.5,215.5 C72.216,215.5 65.5,208.784 65.5,200.5 C65.5,192.216 72.216,185.5 80.5,185.5 C88.784,185.5 95.5,192.216 95.5,200.5 C95.5,208.784 88.784,215.5 80.5,215.5 z" fill-opacity="0" stroke="#294270" stroke-width="1"/>
    </g>
    <g>
      <path d="M140.5,215.5 C132.216,215.5 125.5,208.784 125.5,200.5 C125.5,192.216 132.216,185.5 140.5,185.5 C148.784,185.5 155.5,192.216 155.5,200.5 C155.5,208.784 148.784,215.5 140.5,215.5 z" fill="#006CA9"/>
      <path d="M140.5,215.5 C132.216,215.5 125.5,208.784 125.5,200.5 C125.5,192.216 132.216,185.5 140.5,185.5 C148.784,185.5 155.5,192.216 155.5,200.5 C155.5,208.784 148.784,215.5 140.5,215.5 z" fill-opacity="0" stroke="#294270" stroke-width="1"/>
    </g>
    <g opacity="0.75">
      <path d="M110.5,65.5 C102.216,65.5 95.5,58.784 95.5,50.5 C95.5,42.216 102.216,35.5 110.5,35.5 C118.784,35.5 125.5,42.216 125.5,50.5 C125.5,58.784 118.784,65.5 110.5,65.5 z" fill="#006CA9"/>
      <path d="M110.5,65.5 C102.216,65.5 95.5,58.784 95.5,50.5 C95.5,42.216 102.216,35.5 110.5,35.5 C118.784,35.5 125.5,42.216 125.5,50.5 C125.5,58.784 118.784,65.5 110.5,65.5 z" fill-opacity="0" stroke="#294270" stroke-width="1"/>
    </g>
    <g opacity="0.75">
      <path d="M50.5,65.5 C42.216,65.5 35.5,58.784 35.5,50.5 C35.5,42.216 42.216,35.5 50.5,35.5 C58.784,35.5 65.5,42.216 65.5,50.5 C65.5,58.784 58.784,65.5 50.5,65.5 z" fill="#F0801A"/>
      <path d="M50.5,65.5 C42.216,65.5 35.5,58.784 35.5,50.5 C35.5,42.216 42.216,35.5 50.5,35.5 C58.784,35.5 65.5,42.216 65.5,50.5 C65.5,58.784 58.784,65.5 50.5,65.5 z" fill-opacity="0" stroke="#294270" stroke-width="1"/>
    </g>
    <g opacity="0.75">
      <path d="M170.5,65.5 C162.216,65.5 155.5,58.784 155.5,50.5 C155.5,42.216 162.216,35.5 170.5,35.5 C178.784,35.5 185.5,42.216 185.5,50.5 C185.5,58.784 178.784,65.5 170.5,65.5 z" fill="#F0801A"/>
      <path d="M170.5,65.5 C162.216,65.5 155.5,58.784 155.5,50.5 C155.5,42.216 162.216,35.5 170.5,35.5 C178.784,35.5 185.5,42.216 185.5,50.5 C185.5,58.784 178.784,65.5 170.5,65.5 z" fill-opacity="0" stroke="#294270" stroke-width="1"/>
    </g>
    <g opacity="0.75">
      <path d="M170.5,185.5 C162.216,185.5 155.5,178.784 155.5,170.5 C155.5,162.216 162.216,155.5 170.5,155.5 C178.784,155.5 185.5,162.216 185.5,170.5 C185.5,178.784 178.784,185.5 170.5,185.5 z" fill="#F0801A"/>
      <path d="M170.5,185.5 C162.216,185.5 155.5,178.784 155.5,170.5 C155.5,162.216 162.216,155.5 170.5,155.5 C178.784,155.5 185.5,162.216 185.5,170.5 C185.5,178.784 178.784,185.5 170.5,185.5 z" fill-opacity="0" stroke="#294270" stroke-width="1"/>
    </g>
    <g opacity="0.75">
      <path d="M170.5,125.5 C162.216,125.5 155.5,118.784 155.5,110.5 C155.5,102.216 162.216,95.5 170.5,95.5 C178.784,95.5 185.5,102.216 185.5,110.5 C185.5,118.784 178.784,125.5 170.5,125.5 z" fill="#006CA9"/>
      <path d="M170.5,125.5 C162.216,125.5 155.5,118.784 155.5,110.5 C155.5,102.216 162.216,95.5 170.5,95.5 C178.784,95.5 185.5,102.216 185.5,110.5 C185.5,118.784 178.784,125.5 170.5,125.5 z" fill-opacity="0" stroke="#294270" stroke-width="1"/>
    </g>
    <g opacity="0.75">
      <path d="M50.5,185.5 C42.216,185.5 35.5,178.784 35.5,170.5 C35.5,162.216 42.216,155.5 50.5,155.5 C58.784,155.5 65.5,162.216 65.5,170.5 C65.5,178.784 58.784,185.5 50.5,185.5 z" fill="#F0801A"/>
      <path d="M50.5,185.5 C42.216,185.5 35.5,178.784 35.5,170.5 C35.5,162.216 42.216,155.5 50.5,155.5 C58.784,155.5 65.5,162.216 65.5,170.5 C65.5,178.784 58.784,185.5 50.5,185.5 z" fill-opacity="0" stroke="#294270" stroke-width="1"/>
    </g>
    <g opacity="0.66">
      <path d="M110.5,185.5 C102.216,185.5 95.5,178.784 95.5,170.5 C95.5,162.216 102.216,155.5 110.5,155.5 C118.784,155.5 125.5,162.216 125.5,170.5 C125.5,178.784 118.784,185.5 110.5,185.5 z" fill="#006CA9"/>
      <path d="M110.5,185.5 C102.216,185.5 95.5,178.784 95.5,170.5 C95.5,162.216 102.216,155.5 110.5,155.5 C118.784,155.5 125.5,162.216 125.5,170.5 C125.5,178.784 118.784,185.5 110.5,185.5 z" fill-opacity="0" stroke="#294270" stroke-width="1"/>
    </g>
    <g opacity="0.75">
      <path d="M50.5,125.5 C42.216,125.5 35.5,118.784 35.5,110.5 C35.5,102.216 42.216,95.5 50.5,95.5 C58.784,95.5 65.5,102.216 65.5,110.5 C65.5,118.784 58.784,125.5 50.5,125.5 z" fill="#006CA9"/>
      <path d="M50.5,125.5 C42.216,125.5 35.5,118.784 35.5,110.5 C35.5,102.216 42.216,95.5 50.5,95.5 C58.784,95.5 65.5,102.216 65.5,110.5 C65.5,118.784 58.784,125.5 50.5,125.5 z" fill-opacity="0" stroke="#294270" stroke-width="1"/>
    </g>
    <g opacity="0.75">
      <path d="M110.5,125.5 C102.216,125.5 95.5,118.784 95.5,110.5 C95.5,102.216 102.216,95.5 110.5,95.5 C118.784,95.5 125.5,102.216 125.5,110.5 C125.5,118.784 118.784,125.5 110.5,125.5 z" fill="#F0801A"/>
      <path d="M110.5,125.5 C102.216,125.5 95.5,118.784 95.5,110.5 C95.5,102.216 102.216,95.5 110.5,95.5 C118.784,95.5 125.5,102.216 125.5,110.5 C125.5,118.784 118.784,125.5 110.5,125.5 z" fill-opacity="0" stroke="#294270" stroke-width="1"/>
    </g>
    <g opacity="0.5">
      <path d="M80.5,35.5 C72.216,35.5 65.5,28.784 65.5,20.5 C65.5,12.216 72.216,5.5 80.5,5.5 C88.784,5.5 95.5,12.216 95.5,20.5 C95.5,28.784 88.784,35.5 80.5,35.5 z" fill="#006CA9"/>
      <path d="M80.5,35.5 C72.216,35.5 65.5,28.784 65.5,20.5 C65.5,12.216 72.216,5.5 80.5,5.5 C88.784,5.5 95.5,12.216 95.5,20.5 C95.5,28.784 88.784,35.5 80.5,35.5 z" fill-opacity="0" stroke="#294270" stroke-width="1"/>
    </g>
    <g opacity="0.5">
      <path d="M140.5,35.5 C132.216,35.5 125.5,28.784 125.5,20.5 C125.5,12.216 132.216,5.5 140.5,5.5 C148.784,5.5 155.5,12.216 155.5,20.5 C155.5,28.784 148.784,35.5 140.5,35.5 z" fill="#F0801A"/>
      <path d="M140.5,35.5 C132.216,35.5 125.5,28.784 125.5,20.5 C125.5,12.216 132.216,5.5 140.5,5.5 C148.784,5.5 155.5,12.216 155.5,20.5 C155.5,28.784 148.784,35.5 140.5,35.5 z" fill-opacity="0" stroke="#294270" stroke-width="1"/>
    </g>
    <g opacity="0.5">
      <path d="M200.5,35.5 C192.216,35.5 185.5,28.784 185.5,20.5 C185.5,12.216 192.216,5.5 200.5,5.5 C208.784,5.5 215.5,12.216 215.5,20.5 C215.5,28.784 208.784,35.5 200.5,35.5 z" fill="#006CA9"/>
      <path d="M200.5,35.5 C192.216,35.5 185.5,28.784 185.5,20.5 C185.5,12.216 192.216,5.5 200.5,5.5 C208.784,5.5 215.5,12.216 215.5,20.5 C215.5,28.784 208.784,35.5 200.5,35.5 z" fill-opacity="0" stroke="#294270" stroke-width="1"/>
    </g>
    <g opacity="0.5">
      <path d="M200.5,95.5 C192.216,95.5 185.5,88.784 185.5,80.5 C185.5,72.216 192.216,65.5 200.5,65.5 C208.784,65.5 215.5,72.216 215.5,80.5 C215.5,88.784 208.784,95.5 200.5,95.5 z" fill="#F0801A"/>
      <path d="M200.5,95.5 C192.216,95.5 185.5,88.784 185.5,80.5 C185.5,72.216 192.216,65.5 200.5,65.5 C208.784,65.5 215.5,72.216 215.5,80.5 C215.5,88.784 208.784,95.5 200.5,95.5 z" fill-opacity="0" stroke="#294270" stroke-width="1"/>
    </g>
    <g opacity="0.5">
      <path d="M200.5,155.5 C192.216,155.5 185.5,148.784 185.5,140.5 C185.5,132.216 192.216,125.5 200.5,125.5 C208.784,125.5 215.5,132.216 215.5,140.5 C215.5,148.784 208.784,155.5 200.5,155.5 z" fill="#006CA9"/>
      <path d="M200.5,155.5 C192.216,155.5 185.5,148.784 185.5,140.5 C185.5,132.216 192.216,125.5 200.5,125.5 C208.784,125.5 215.5,132.216 215.5,140.5 C215.5,148.784 208.784,155.5 200.5,155.5 z" fill-opacity="0" stroke="#294270" stroke-width="1"/>
    </g>
    <path d="M430.5,80.5 L460.5,80.5" fill-opacity="0" stroke="#65A1CF" stroke-width="6"/>
    <path d="M430.5,140.5 L460.5,140.5" fill-opacity="0" stroke="#65A1CF" stroke-width="6"/>
    <path d="M415.5,35.5 L415.5,65.5" fill-opacity="0" stroke="#65A1CF" stroke-width="6"/>
    <path d="M355.5,35.5 L355.5,65.5" fill-opacity="0" stroke="#65A1CF" stroke-width="6"/>
    <path d="M385.5,125.5 L385.5,155.5" fill-opacity="0" stroke="#006CA9" stroke-width="6"/>
    <path d="M385.5,65.5 L385.5,95.5" fill-opacity="0" stroke="#006CA9" stroke-width="6"/>
    <path d="M325.5,65.5 L325.5,95.5" fill-opacity="0" stroke="#006CA9" stroke-width="6"/>
    <path d="M325.5,125.5 L325.5,155.5" fill-opacity="0" stroke="#006CA9" stroke-width="6"/>
    <path d="M340.5,50.5 L370.5,50.5" fill-opacity="0" stroke="#006CA9" stroke-width="6"/>
    <path d="M400.5,50.5 L430.5,50.5" fill-opacity="0" stroke="#006CA9" stroke-width="6"/>
    <path d="M445.5,65.5 L445.5,95.5" fill-opacity="0" stroke="#006CA9" stroke-width="6"/>
    <path d="M445.5,125.5 L445.5,155.5" fill-opacity="0" stroke="#006CA9" stroke-width="6"/>
    <path d="M340.5,110.5 L370.5,110.5" fill-opacity="0" stroke="#006CA9" stroke-width="6"/>
    <path d="M400.5,110.5 L430.5,110.5" fill-opacity="0" stroke="#006CA9" stroke-width="6"/>
    <path d="M400.5,170.5 L430.5,170.5" fill-opacity="0" stroke="#006CA9" stroke-width="6"/>
    <path d="M340.5,170.5 L370.5,170.5" fill-opacity="0" stroke="#006CA9" stroke-width="6"/>
    <path d="M310.5,80.5 L340.5,80.5" fill-opacity="0" stroke="#294270" stroke-width="6"/>
    <path d="M310.5,140.5 L340.5,140.5" fill-opacity="0" stroke="#294270" stroke-width="6"/>
    <path d="M295.5,95.5 L295.5,125.5" fill-opacity="0" stroke="#294270" stroke-width="6"/>
    <path d="M354.122,95.5 L354.122,125.5" fill-opacity="0" stroke="#294270" stroke-width="6"/>
    <path d="M370.5,80.5 L400.5,80.5" fill-opacity="0" stroke="#294270" stroke-width="6"/>
    <path d="M415.5,95.5 L415.5,125.5" fill-opacity="0" stroke="#294270" stroke-width="6"/>
    <path d="M370.5,140.5 L400.5,140.5" fill-opacity="0" stroke="#294270" stroke-width="6"/>
    <path d="M310.5,200.5 L340.5,200.5" fill-opacity="0" stroke="#294270" stroke-width="6"/>
    <path d="M370.5,200.5 L400.5,200.5" fill-opacity="0" stroke="#294270" stroke-width="6"/>
    <path d="M295.5,155.5 L295.5,185.5" fill-opacity="0" stroke="#294270" stroke-width="6"/>
    <path d="M354.122,155.5 L354.122,185.5" fill-opacity="0" stroke="#294270" stroke-width="6"/>
    <path d="M415.5,155.5 L415.5,185.5" fill-opacity="0" stroke="#294270" stroke-width="6"/>
    <path d="M370.5,20.5 L400.5,20.5" fill-opacity="0" stroke="#65A1CF" stroke-width="6"/>
    <path d="M430.5,20.5 L460.5,20.5" fill-opacity="0" stroke="#65A1CF" stroke-width="6"/>
    <path d="M475.5,35.5 L475.5,65.5" fill-opacity="0" stroke="#65A1CF" stroke-width="6"/>
    <path d="M475.5,95.5 L475.5,125.5" fill-opacity="0" stroke="#65A1CF" stroke-width="6"/>
    <path d="M315.5,60.5 L305.5,70.5" fill-opacity="0" stroke="#006CA9" stroke-width="6"/>
    <path d="M345.5,30.5 L335.5,40.5" fill-opacity="0" stroke="#65A1CF" stroke-width="6"/>
    <path d="M375.5,60.5 L365.5,70.5" fill-opacity="0" stroke="#006CA9" stroke-width="6"/>
    <path d="M405.5,30.5 L395.5,40.5" fill-opacity="0" stroke="#65A1CF" stroke-width="6"/>
    <path d="M435.5,60.5 L425.5,70.5" fill-opacity="0" stroke="#006CA9" stroke-width="6"/>
    <path d="M465.5,30.5 L455.5,40.5" fill-opacity="0" stroke="#65A1CF" stroke-width="6"/>
    <path d="M435.5,120.5 L425.5,130.5" fill-opacity="0" stroke="#006CA9" stroke-width="6"/>
    <path d="M465.5,90.5 L455.5,100.5" fill-opacity="0" stroke="#65A1CF" stroke-width="6"/>
    <path d="M435.5,180.5 L425.5,190.5" fill-opacity="0" stroke="#006CA9" stroke-width="6"/>
    <path d="M465.5,150.5 L455.5,160.5" fill-opacity="0" stroke="#65A1CF" stroke-width="6"/>
    <path d="M315.5,180.5 L305.5,190.5" fill-opacity="0" stroke="#006CA9" stroke-width="6"/>
    <path d="M375.5,180.5 L365.5,190.5" fill-opacity="0" stroke="#006CA9" stroke-width="6"/>
    <path d="M315.5,120.5 L305.5,130.5" fill-opacity="0" stroke="#006CA9" stroke-width="6"/>
    <path d="M375.5,120.5 L365.5,130.5" fill-opacity="0" stroke="#006CA9" stroke-width="6"/>
    <path d="M345.5,150.5 L335.5,160.5" fill-opacity="0" stroke="#65A1CF" stroke-width="6"/>
    <path d="M405.5,150.5 L395.5,160.5" fill-opacity="0" stroke="#65A1CF" stroke-width="6" opacity="0.75"/>
    <path d="M345.5,90.5 L335.5,100.5" fill-opacity="0" stroke="#65A1CF" stroke-width="6"/>
    <path d="M405.5,90.5 L395.5,100.5" fill-opacity="0" stroke="#65A1CF" stroke-width="6"/>
    <g>
      <path d="M295.5,95.5 C287.216,95.5 280.5,88.784 280.5,80.5 C280.5,72.216 287.216,65.5 295.5,65.5 C303.784,65.5 310.5,72.216 310.5,80.5 C310.5,88.784 303.784,95.5 295.5,95.5 z" fill="#006CA9"/>
      <path d="M295.5,95.5 C287.216,95.5 280.5,88.784 280.5,80.5 C280.5,72.216 287.216,65.5 295.5,65.5 C303.784,65.5 310.5,72.216 310.5,80.5 C310.5,88.784 303.784,95.5 295.5,95.5 z" fill-opacity="0" stroke="#294270" stroke-width="1"/>
    </g>
    <g>
      <path d="M355.5,95.5 C347.216,95.5 340.5,88.784 340.5,80.5 C340.5,72.216 347.216,65.5 355.5,65.5 C363.784,65.5 370.5,72.216 370.5,80.5 C370.5,88.784 363.784,95.5 355.5,95.5 z" fill="#F0801A"/>
      <path d="M355.5,95.5 C347.216,95.5 340.5,88.784 340.5,80.5 C340.5,72.216 347.216,65.5 355.5,65.5 C363.784,65.5 370.5,72.216 370.5,80.5 C370.5,88.784 363.784,95.5 355.5,95.5 z" fill-opacity="0" stroke="#294270" stroke-width="1"/>
    </g>
    <g>
      <path d="M355.5,155.5 C347.216,155.5 340.5,148.784 340.5,140.5 C340.5,132.216 347.216,125.5 355.5,125.5 C363.784,125.5 370.5,132.216 370.5,140.5 C370.5,148.784 363.784,155.5 355.5,155.5 z" fill="#006CA9"/>
      <path d="M355.5,155.5 C347.216,155.5 340.5,148.784 340.5,140.5 C340.5,132.216 347.216,125.5 355.5,125.5 C363.784,125.5 370.5,132.216 370.5,140.5 C370.5,148.784 363.784,155.5 355.5,155.5 z" fill-opacity="0" stroke="#294270" stroke-width="1"/>
    </g>
    <g>
      <path d="M295.5,155.5 C287.216,155.5 280.5,148.784 280.5,140.5 C280.5,132.216 287.216,125.5 295.5,125.5 C303.784,125.5 310.5,132.216 310.5,140.5 C310.5,148.784 303.784,155.5 295.5,155.5 z" fill="#F0801A"/>
      <path d="M295.5,155.5 C287.216,155.5 280.5,148.784 280.5,140.5 C280.5,132.216 287.216,125.5 295.5,125.5 C303.784,125.5 310.5,132.216 310.5,140.5 C310.5,148.784 303.784,155.5 295.5,155.5 z" fill-opacity="0" stroke="#294270" stroke-width="1"/>
    </g>
    <g>
      <path d="M415.5,155.5 C407.216,155.5 400.5,148.784 400.5,140.5 C400.5,132.216 407.216,125.5 415.5,125.5 C423.784,125.5 430.5,132.216 430.5,140.5 C430.5,148.784 423.784,155.5 415.5,155.5 z" fill="#F0801A"/>
      <path d="M415.5,155.5 C407.216,155.5 400.5,148.784 400.5,140.5 C400.5,132.216 407.216,125.5 415.5,125.5 C423.784,125.5 430.5,132.216 430.5,140.5 C430.5,148.784 423.784,155.5 415.5,155.5 z" fill-opacity="0" stroke="#294270" stroke-width="1"/>
    </g>
    <g>
      <path d="M415.5,95.5 C407.216,95.5 400.5,88.784 400.5,80.5 C400.5,72.216 407.216,65.5 415.5,65.5 C423.784,65.5 430.5,72.216 430.5,80.5 C430.5,88.784 423.784,95.5 415.5,95.5 z" fill="#006CA9"/>
      <path d="M415.5,95.5 C407.216,95.5 400.5,88.784 400.5,80.5 C400.5,72.216 407.216,65.5 415.5,65.5 C423.784,65.5 430.5,72.216 430.5,80.5 C430.5,88.784 423.784,95.5 415.5,95.5 z" fill-opacity="0" stroke="#294270" stroke-width="1"/>
    </g>
    <g>
      <path d="M295.5,215.5 C287.216,215.5 280.5,208.784 280.5,200.5 C280.5,192.216 287.216,185.5 295.5,185.5 C303.784,185.5 310.5,192.216 310.5,200.5 C310.5,208.784 303.784,215.5 295.5,215.5 z" fill="#006CA9"/>
      <path d="M295.5,215.5 C287.216,215.5 280.5,208.784 280.5,200.5 C280.5,192.216 287.216,185.5 295.5,185.5 C303.784,185.5 310.5,192.216 310.5,200.5 C310.5,208.784 303.784,215.5 295.5,215.5 z" fill-opacity="0" stroke="#294270" stroke-width="1"/>
    </g>
    <g>
      <path d="M355.5,215.5 C347.216,215.5 340.5,208.784 340.5,200.5 C340.5,192.216 347.216,185.5 355.5,185.5 C363.784,185.5 370.5,192.216 370.5,200.5 C370.5,208.784 363.784,215.5 355.5,215.5 z" fill="#F0801A"/>
      <path d="M355.5,215.5 C347.216,215.5 340.5,208.784 340.5,200.5 C340.5,192.216 347.216,185.5 355.5,185.5 C363.784,185.5 370.5,192.216 370.5,200.5 C370.5,208.784 363.784,215.5 355.5,215.5 z" fill-opacity="0" stroke="#294270" stroke-width="1"/>
    </g>
    <g>
      <path d="M415.5,215.5 C407.216,215.5 400.5,208.784 400.5,200.5 C400.5,192.216 407.216,185.5 415.5,185.5 C423.784,185.5 430.5,192.216 430.5,200.5 C430.5,208.784 423.784,215.5 415.5,215.5 z" fill="#006CA9"/>
      <path d="M415.5,215.5 C407.216,215.5 400.5,208.784 400.5,200.5 C400.5,192.216 407.216,185.5 415.5,185.5 C423.784,185.5 430.5,192.216 430.5,200.5 C430.5,208.784 423.784,215.5 415.5,215.5 z" fill-opacity="0" stroke="#294270" stroke-width="1"/>
    </g>
    <g opacity="0.75">
      <path d="M385.5,65.5 C377.216,65.5 370.5,58.784 370.5,50.5 C370.5,42.216 377.216,35.5 385.5,35.5 C393.784,35.5 400.5,42.216 400.5,50.5 C400.5,58.784 393.784,65.5 385.5,65.5 z" fill="#006CA9"/>
      <path d="M385.5,65.5 C377.216,65.5 370.5,58.784 370.5,50.5 C370.5,42.216 377.216,35.5 385.5,35.5 C393.784,35.5 400.5,42.216 400.5,50.5 C400.5,58.784 393.784,65.5 385.5,65.5 z" fill-opacity="0" stroke="#294270" stroke-width="1"/>
    </g>
    <g opacity="0.75">
      <path d="M325.5,65.5 C317.216,65.5 310.5,58.784 310.5,50.5 C310.5,42.216 317.216,35.5 325.5,35.5 C333.784,35.5 340.5,42.216 340.5,50.5 C340.5,58.784 333.784,65.5 325.5,65.5 z" fill="#F0801A"/>
      <path d="M325.5,65.5 C317.216,65.5 310.5,58.784 310.5,50.5 C310.5,42.216 317.216,35.5 325.5,35.5 C333.784,35.5 340.5,42.216 340.5,50.5 C340.5,58.784 333.784,65.5 325.5,65.5 z" fill-opacity="0" stroke="#294270" stroke-width="1"/>
    </g>
    <g opacity="0.75">
      <path d="M445.5,65.5 C437.216,65.5 430.5,58.784 430.5,50.5 C430.5,42.216 437.216,35.5 445.5,35.5 C453.784,35.5 460.5,42.216 460.5,50.5 C460.5,58.784 453.784,65.5 445.5,65.5 z" fill="#F0801A"/>
      <path d="M445.5,65.5 C437.216,65.5 430.5,58.784 430.5,50.5 C430.5,42.216 437.216,35.5 445.5,35.5 C453.784,35.5 460.5,42.216 460.5,50.5 C460.5,58.784 453.784,65.5 445.5,65.5 z" fill-opacity="0" stroke="#294270" stroke-width="1"/>
    </g>
    <g opacity="0.75">
      <path d="M445.5,185.5 C437.216,185.5 430.5,178.784 430.5,170.5 C430.5,162.216 437.216,155.5 445.5,155.5 C453.784,155.5 460.5,162.216 460.5,170.5 C460.5,178.784 453.784,185.5 445.5,185.5 z" fill="#F0801A"/>
      <path d="M445.5,185.5 C437.216,185.5 430.5,178.784 430.5,170.5 C430.5,162.216 437.216,155.5 445.5,155.5 C453.784,155.5 460.5,162.216 460.5,170.5 C460.5,178.784 453.784,185.5 445.5,185.5 z" fill-opacity="0" stroke="#294270" stroke-width="1"/>
    </g>
    <g opacity="0.75">
      <path d="M445.5,125.5 C437.216,125.5 430.5,118.784 430.5,110.5 C430.5,102.216 437.216,95.5 445.5,95.5 C453.784,95.5 460.5,102.216 460.5,110.5 C460.5,118.784 453.784,125.5 445.5,125.5 z" fill="#006CA9"/>
      <path d="M445.5,125.5 C437.216,125.5 430.5,118.784 430.5,110.5 C430.5,102.216 437.216,95.5 445.5,95.5 C453.784,95.5 460.5,102.216 460.5,110.5 C460.5,118.784 453.784,125.5 445.5,125.5 z" fill-opacity="0" stroke="#294270" stroke-width="1"/>
    </g>
    <g opacity="0.75">
      <path d="M325.5,185.5 C317.216,185.5 310.5,178.784 310.5,170.5 C310.5,162.216 317.216,155.5 325.5,155.5 C333.784,155.5 340.5,162.216 340.5,170.5 C340.5,178.784 333.784,185.5 325.5,185.5 z" fill="#F0801A"/>
      <path d="M325.5,185.5 C317.216,185.5 310.5,178.784 310.5,170.5 C310.5,162.216 317.216,155.5 325.5,155.5 C333.784,155.5 340.5,162.216 340.5,170.5 C340.5,178.784 333.784,185.5 325.5,185.5 z" fill-opacity="0" stroke="#294270" stroke-width="1"/>
    </g>
    <g opacity="0.66">
      <path d="M385.5,185.5 C377.216,185.5 370.5,178.784 370.5,170.5 C370.5,162.216 377.216,155.5 385.5,155.5 C393.784,155.5 400.5,162.216 400.5,170.5 C400.5,178.784 393.784,185.5 385.5,185.5 z" fill="#006CA9"/>
      <path d="M385.5,185.5 C377.216,185.5 370.5,178.784 370.5,170.5 C370.5,162.216 377.216,155.5 385.5,155.5 C393.784,155.5 400.5,162.216 400.5,170.5 C400.5,178.784 393.784,185.5 385.5,185.5 z" fill-opacity="0" stroke="#294270" stroke-width="1"/>
    </g>
    <g opacity="0.75">
      <path d="M325.5,125.5 C317.216,125.5 310.5,118.784 310.5,110.5 C310.5,102.216 317.216,95.5 325.5,95.5 C333.784,95.5 340.5,102.216 340.5,110.5 C340.5,118.784 333.784,125.5 325.5,125.5 z" fill="#006CA9"/>
      <path d="M325.5,125.5 C317.216,125.5 310.5,118.784 310.5,110.5 C310.5,102.216 317.216,95.5 325.5,95.5 C333.784,95.5 340.5,102.216 340.5,110.5 C340.5,118.784 333.784,125.5 325.5,125.5 z" fill-opacity="0" stroke="#294270" stroke-width="1"/>
    </g>
    <g opacity="0.75">
      <path d="M385.5,125.5 C377.216,125.5 370.5,118.784 370.5,110.5 C370.5,102.216 377.216,95.5 385.5,95.5 C393.784,95.5 400.5,102.216 400.5,110.5 C400.5,118.784 393.784,125.5 385.5,125.5 z" fill="#006CA9"/>
      <path d="M385.5,125.5 C377.216,125.5 370.5,118.784 370.5,110.5 C370.5,102.216 377.216,95.5 385.5,95.5 C393.784,95.5 400.5,102.216 400.5,110.5 C400.5,118.784 393.784,125.5 385.5,125.5 z" fill-opacity="0" stroke="#294270" stroke-width="1"/>
    </g>
    <g opacity="0.5">
      <path d="M355.5,35.5 C347.216,35.5 340.5,28.784 340.5,20.5 C340.5,12.216 347.216,5.5 355.5,5.5 C363.784,5.5 370.5,12.216 370.5,20.5 C370.5,28.784 363.784,35.5 355.5,35.5 z" fill="#006CA9"/>
      <path d="M355.5,35.5 C347.216,35.5 340.5,28.784 340.5,20.5 C340.5,12.216 347.216,5.5 355.5,5.5 C363.784,5.5 370.5,12.216 370.5,20.5 C370.5,28.784 363.784,35.5 355.5,35.5 z" fill-opacity="0" stroke="#294270" stroke-width="1"/>
    </g>
    <g opacity="0.5">
      <path d="M415.5,35.5 C407.216,35.5 400.5,28.784 400.5,20.5 C400.5,12.216 407.216,5.5 415.5,5.5 C423.784,5.5 430.5,12.216 430.5,20.5 C430.5,28.784 423.784,35.5 415.5,35.5 z" fill="#F0801A"/>
      <path d="M415.5,35.5 C407.216,35.5 400.5,28.784 400.5,20.5 C400.5,12.216 407.216,5.5 415.5,5.5 C423.784,5.5 430.5,12.216 430.5,20.5 C430.5,28.784 423.784,35.5 415.5,35.5 z" fill-opacity="0" stroke="#294270" stroke-width="1"/>
    </g>
    <g opacity="0.5">
      <path d="M475.5,35.5 C467.216,35.5 460.5,28.784 460.5,20.5 C460.5,12.216 467.216,5.5 475.5,5.5 C483.784,5.5 490.5,12.216 490.5,20.5 C490.5,28.784 483.784,35.5 475.5,35.5 z" fill="#006CA9"/>
      <path d="M475.5,35.5 C467.216,35.5 460.5,28.784 460.5,20.5 C460.5,12.216 467.216,5.5 475.5,5.5 C483.784,5.5 490.5,12.216 490.5,20.5 C490.5,28.784 483.784,35.5 475.5,35.5 z" fill-opacity="0" stroke="#294270" stroke-width="1"/>
    </g>
    <g opacity="0.5">
      <path d="M475.5,95.5 C467.216,95.5 460.5,88.784 460.5,80.5 C460.5,72.216 467.216,65.5 475.5,65.5 C483.784,65.5 490.5,72.216 490.5,80.5 C490.5,88.784 483.784,95.5 475.5,95.5 z" fill="#F0801A"/>
      <path d="M475.5,95.5 C467.216,95.5 460.5,88.784 460.5,80.5 C460.5,72.216 467.216,65.5 475.5,65.5 C483.784,65.5 490.5,72.216 490.5,80.5 C490.5,88.784 483.784,95.5 475.5,95.5 z" fill-opacity="0" stroke="#294270" stroke-width="1"/>
    </g>
    <g opacity="0.5">
      <path d="M475.5,155.5 C467.216,155.5 460.5,148.784 460.5,140.5 C460.5,132.216 467.216,125.5 475.5,125.5 C483.784,125.5 490.5,132.216 490.5,140.5 C490.5,148.784 483.784,155.5 475.5,155.5 z" fill="#006CA9"/>
      <path d="M475.5,155.5 C467.216,155.5 460.5,148.784 460.5,140.5 C460.5,132.216 467.216,125.5 475.5,125.5 C483.784,125.5 490.5,132.216 490.5,140.5 C490.5,148.784 483.784,155.5 475.5,155.5 z" fill-opacity="0" stroke="#294270" stroke-width="1"/>
    </g>
    <text transform="matrix(1, 0, 0, 1, 243.689, 77)">
      <tspan x="-23.689" y="23" font-family="LucidaGrande" font-size="62" fill="#006CA9">✓</tspan>
    </text>
    <text transform="matrix(1, 0, 0, 1, 517.695, 77)">
      <tspan x="-17.695" y="19" font-family="ZapfDingbatsITC" font-size="62" fill="#F0801A">✗</tspan>
    </text>
  </g>
</svg>
